<svg width="40" height="40" viewBox="0 0 40 40" fill="none" xmlns="http://www.w3.org/2000/svg">
<g clip-path="url(#clip0_7_510)">
<g clip-path="url(#clip1_7_510)">
<path d="M31.6352 14.4179L21.9653 18.86C21.7301 18.9781 21.612 19.1743 21.612 19.4105V32.7358C21.612 33.1682 22.0834 33.4825 22.4768 33.2853L32.1457 28.8832C32.3819 28.8052 32.5 28.569 32.5 28.3327V14.9684C32.5 14.536 32.0286 14.2608 31.6352 14.4179ZM10.723 11.9417L19.7643 16.0685C19.9254 16.1475 20.1136 16.1475 20.2748 16.0685L29.3171 11.9417C29.7875 11.7054 29.7875 11.0368 29.3171 10.8406L20.2748 6.71385C20.1136 6.63477 19.9244 6.63477 19.7633 6.71385L10.724 10.8406C10.2515 11.0769 10.2505 11.7455 10.723 11.9417ZM7.85333 28.8832L17.5242 33.2853C17.9166 33.4825 18.389 33.1682 18.389 32.7358V19.4105C18.389 19.1743 18.2309 18.9381 18.0347 18.86L8.36379 14.4179C7.97143 14.2218 7.5 14.536 7.5 14.9684V28.2947C7.5 28.569 7.65714 28.7651 7.85333 28.8832Z" fill="#F8442E"/>
</g>
</g>
<defs>
<clipPath id="clip0_7_510">
<rect width="25" height="27" fill="white" transform="translate(7.5 6.5)"/>
</clipPath>
<clipPath id="clip1_7_510">
<rect width="25" height="27" fill="white" transform="translate(7.5 6.5)"/>
</clipPath>
</defs>
</svg>
